<?xml version="1.0" encoding="UTF-8" standalone="no"?>
<svg width="287px" height="45px" viewBox="0 0 287 45" version="1.1" xmlns="http://www.w3.org/2000/svg" xmlns:xlink="http://www.w3.org/1999/xlink">
    <!-- Generator: Sketch 42 (36781) - http://www.bohemiancoding.com/sketch -->
    <title>Cozinha &amp; Equilíbrio</title>
    <desc>Created with Sketch.</desc>
    <defs></defs>
    <g id="Page-1" stroke="none" stroke-width="1" fill="none" fill-rule="evenodd">
        <g id="HOME" transform="translate(-260.000000, -54.000000)" fill="#9D8D8A">
            <path d="M281.695076,79.4622481 C280.34265,79.9880963 279.089466,80.3941775 277.9355,80.6805 C276.472493,81.0435018 275.026007,81.225 273.596,81.225 C270.713986,81.225 268.536007,80.5045072 267.062,79.0635 C265.587993,77.6224928 264.851,75.5820132 264.851,72.942 C264.851,70.4119874 265.257996,68.2285092 266.072,66.3915 C266.886004,64.5544908 267.952993,63.1630047 269.273,62.217 C270.593007,61.2709953 271.978993,60.798 273.431,60.798 C275.565011,60.798 276.632,61.79899 276.632,63.801 C276.632,64.197002 276.566001,64.7249967 276.434,65.385 C276.346,65.9130026 276.302,66.275999 276.302,66.474 C276.302,67.0240027 276.477998,67.4419986 276.83,67.728 C277.182002,68.0140014 277.665997,68.157 278.282,68.157 C279.162004,68.157 279.838498,67.7500041 280.3115,66.936 C280.784502,66.1219959 281.021,65.0440067 281.021,63.702 C281.021,61.69999 280.405006,60.0885061 279.173,58.8675 C277.940994,57.6464939 276.137012,57.036 273.761,57.036 C271.208987,57.036 268.88801,57.7234931 266.798,59.0985 C264.70799,60.4735069 263.052506,62.4149875 261.8315,64.923 C260.610494,67.4310125 260,70.3019838 260,73.536 C260,75.8680117 260.516995,77.9139912 261.551,79.674 C262.585005,81.4340088 264.06999,82.7924952 266.006,83.7495 C267.94201,84.7065048 270.218987,85.185 272.837,85.185 C274.355008,85.185 275.955492,85.0255016 277.6385,84.7065 C279.321508,84.3874984 280.943992,83.8870034 282.506,83.205 C282.700057,83.1197325 282.881146,83.028178 283.049268,82.9303363 C283.419019,83.4211551 283.859428,83.8482082 284.3705,84.2115 C285.283505,84.8605032 286.388994,85.185 287.687,85.185 C289.007007,85.185 290.211495,84.8165037 291.3005,84.0795 C292.389505,83.3424963 293.252997,82.3195065 293.891,81.0105 C294.529003,79.7014935 294.848,78.2110084 294.848,76.539 C294.848,75.3289939 294.617002,74.1960053 294.155,73.14 C293.692998,72.0839947 293.000005,71.2315032 292.076,70.5825 C291.151995,69.9334968 290.041006,69.609 288.743,69.609 C287.400993,69.609 286.191005,69.9774963 285.113,70.7145 C284.034995,71.4515037 283.182503,72.4744935 282.5555,73.7835 C281.928497,75.0925065 281.615,76.5829916 281.615,78.255 C281.615,78.666315 281.641692,79.0687306 281.695076,79.4622481 Z M336.436911,83.1171781 C336.042817,83.4627806 335.638348,83.778054 335.2235,84.063 C334.134495,84.8110037 332.897007,85.185 331.511,85.185 C330.388994,85.185 329.542003,84.8605032 328.97,84.2115 C328.397997,83.5624968 328.112,82.6220062 328.112,81.39 C328.112,80.7739969 328.265998,79.6740079 328.574,78.09 C328.860001,76.7039931 329.003,75.7470026 329.003,75.219 C329.003,74.8669982 328.882001,74.691 328.64,74.691 C328.353999,74.691 327.952503,75.0594963 327.4355,75.7965 C326.918497,76.5335037 326.390503,77.5069939 325.8515,78.717 C325.312497,79.9270061 324.878002,81.2029933 324.548,82.545 C324.305999,83.5790052 324.025502,84.2774982 323.7065,84.6405 C323.387498,85.0035018 322.887003,85.185 322.205,85.185 C321.368996,85.185 320.780502,84.7450044 320.4395,83.865 C320.347167,83.6267217 320.267335,83.3497338 320.200003,83.0340355 C318.657303,84.4680171 317.191644,85.185 315.803,85.185 C314.372993,85.185 313.333503,84.6790051 312.6845,83.667 C312.522176,83.4138852 312.380153,83.140128 312.258429,82.8457279 C311.572008,83.4354793 310.812033,83.9402349 309.9785,84.36 C308.449492,85.1300038 306.72801,85.515 304.814,85.515 C303.317993,85.515 302.020006,85.2895023 300.92,84.8385 C299.819995,84.3874977 298.978503,83.7715039 298.3955,82.9905 C297.812497,82.2094961 297.521,81.3350048 297.521,80.367 C297.521,78.9149927 298.103994,77.6280056 299.27,76.506 C300.436006,75.3839944 302.107989,74.3060052 304.286,73.272 L298.874,73.404 C298.389998,73.4260001 298.021501,73.2555018 297.7685,72.8925 C297.515499,72.5294982 297.389,72.0950025 297.389,71.589 C297.389,71.0609974 297.515499,70.593502 297.7685,70.1865 C298.021501,69.779498 298.367998,69.576 298.808,69.576 C299.820005,69.576 301.172992,69.6529992 302.867,69.807 C303.219002,69.8290001 303.862495,69.8729997 304.7975,69.939 C305.732505,70.0050003 306.518997,70.038 307.157,70.038 C307.377001,70.038 307.794997,69.9500009 308.411,69.774 C308.521001,69.7519999 308.735498,69.6970004 309.0545,69.609 C309.373502,69.5209996 309.642999,69.477 309.863,69.477 C310.215002,69.477 310.506499,69.6309985 310.7375,69.939 C310.968501,70.2470015 311.084,70.7199968 311.084,71.358 C311.084,72.0620035 310.919002,72.611998 310.589,73.008 C310.258998,73.404002 309.742004,73.7559985 309.038,74.064 C307.03599,74.9220043 305.375007,75.8404951 304.055,76.8195 C302.734993,77.7985049 302.075,78.7719952 302.075,79.74 C302.075,80.3560031 302.360997,80.861998 302.933,81.258 C303.505003,81.654002 304.351994,81.852 305.474,81.852 C306.706006,81.852 307.954494,81.5440031 309.2195,80.928 C310.117041,80.4909367 310.950891,79.8932915 311.721063,79.1350544 C311.755552,78.2297877 311.878697,77.1279437 312.0905,75.8295 C312.343501,74.2784922 312.667998,72.8320067 313.064,71.49 C313.262001,70.7859965 313.525998,70.3020013 313.856,70.038 C314.186002,69.7739987 314.713996,69.642 315.44,69.642 C316.562006,69.642 317.123,70.0159963 317.123,70.764 C317.123,71.3140028 316.914002,72.58999 316.496,74.592 C315.967997,77.0120121 315.704,78.6509957 315.704,79.509 C315.704,80.1690033 315.791999,80.6749982 315.968,81.027 C316.144001,81.3790018 316.440998,81.555 316.859,81.555 C317.255002,81.555 317.749997,81.2800027 318.344,80.73 C318.771439,80.3342228 319.3014,79.7732695 319.93389,79.0471306 C319.9865,76.4042526 320.391534,73.885231 321.149,71.49 C321.347001,70.8519968 321.671498,70.3845015 322.1225,70.0875 C322.573502,69.7904985 323.205996,69.642 324.02,69.642 C324.460002,69.642 324.767999,69.6969994 324.944,69.807 C325.120001,69.9170005 325.208,70.1259985 325.208,70.434 C325.208,70.7860018 325.043002,71.5779938 324.713,72.81 C324.492999,73.6900044 324.317001,74.4599967 324.185,75.12 C324.052999,75.7800033 323.943,76.5939952 323.855,77.562 C324.581004,75.6699905 325.394995,74.1300059 326.297,72.942 C327.199005,71.7539941 328.084496,70.9070025 328.9535,70.401 C329.822504,69.8949975 330.619996,69.642 331.346,69.642 C332.776007,69.642 333.491,70.3569928 333.491,71.787 C333.491,72.6450043 333.249002,74.1959888 332.765,76.44 C332.346998,78.3540096 332.138,79.6189969 332.138,80.235 C332.138,81.1150044 332.456997,81.555 333.095,81.555 C333.535002,81.555 334.057497,81.2855027 334.6625,80.7465 C335.133382,80.3269873 335.727531,79.7042454 336.444959,78.8782619 L336.461,77.595 C336.461,74.2069831 336.807497,70.6760184 337.5005,67.002 C338.193503,63.3279816 339.216493,60.2425125 340.5695,57.7455 C341.922507,55.2484875 343.544991,54 345.437,54 C346.449005,54 347.268497,54.4344957 347.8955,55.3035 C348.522503,56.1725043 348.836,57.2999931 348.836,58.686 C348.836,60.9080111 348.187006,63.2124881 346.889,65.5995 C345.590994,67.9865119 343.479015,70.7749841 340.553,73.965 C340.487,75.1090057 340.454,76.285994 340.454,77.496 C341.180004,75.6259907 341.988496,74.1025059 342.8795,72.9255 C343.770504,71.7484941 344.650496,70.9070025 345.5195,70.401 C346.388504,69.8949975 347.185996,69.642 347.912,69.642 C349.342007,69.642 350.057,70.3569929 350.057,71.787 C350.057,72.6450043 349.815002,74.1959888 349.331,76.44 C348.912998,78.3540096 348.704,79.6189969 348.704,80.235 C348.704,81.1150044 349.022997,81.555 349.661,81.555 C350.101002,81.555 350.623497,81.2855027 351.2285,80.7465 C351.833503,80.2074973 352.641995,79.333006 353.654,78.123 C353.918001,77.8149985 354.214998,77.661 354.545,77.661 C354.831001,77.661 355.056499,77.7929987 355.2215,78.057 C355.386501,78.3210013 355.469,78.6839977 355.469,79.146 C355.469,80.0260044 355.260002,80.7079976 354.842,81.192 C353.829995,82.3580058 352.790505,83.3149963 351.7235,84.063 C350.656495,84.8110037 349.441007,85.185 348.077,85.185 C346.954994,85.185 346.108003,84.8605032 345.536,84.2115 C344.963997,83.5624968 344.678,82.6220062 344.678,81.39 C344.678,80.7739969 344.831998,79.6740079 345.14,78.09 C345.426001,76.7039931 345.569,75.7470026 345.569,75.219 C345.569,74.8669982 345.448001,74.691 345.206,74.691 C344.919999,74.691 344.513003,75.0594963 343.985,75.7965 C343.456997,76.5335037 342.929003,77.506994 342.401,78.717 C341.872997,79.9270061 341.444002,81.2029933 341.114,82.545 C340.695998,84.3050088 339.662008,85.185 338.012,85.185 C337.351997,85.185 336.917501,84.9485024 336.7085,84.4755 C336.575917,84.1754429 336.485387,83.7226711 336.436911,83.1171781 Z M289.9475,80.4 C289.430497,81.2140041 288.798004,81.621 288.05,81.621 C287.389997,81.621 286.840002,81.324003 286.4,80.73 C285.959998,80.135997 285.74,79.2120063 285.74,77.958 C285.74,76.3739921 285.998497,75.180504 286.5155,74.3775 C287.032503,73.574496 287.686996,73.173 288.479,73.173 C289.095003,73.173 289.622998,73.4809969 290.063,74.097 C290.503002,74.7130031 290.723,75.625994 290.723,76.836 C290.723,78.3980078 290.464503,79.5859959 289.9475,80.4 Z M313.988,66.8205 C313.525998,66.3914979 313.295,65.7920038 313.295,65.022 C313.295,64.2519961 313.597497,63.6085026 314.2025,63.0915 C314.807503,62.5744974 315.560995,62.316 316.463,62.316 C317.277004,62.316 317.936997,62.513998 318.443,62.91 C318.949003,63.306002 319.202,63.8669964 319.202,64.593 C319.202,65.4730044 318.916003,66.1714974 318.344,66.6885 C317.771997,67.2055026 317.013005,67.464 316.067,67.464 C315.142995,67.464 314.450002,67.2495021 313.988,66.8205 Z M343.424,58.9665 C343.908002,57.8334943 344.347998,57.267 344.744,57.267 C345.030001,57.267 345.249999,57.4539981 345.404,57.828 C345.558001,58.2020019 345.635,58.7409965 345.635,59.445 C345.635,60.9850077 345.189504,62.7009905 344.2985,64.593 C343.407496,66.4850095 342.280007,68.233992 340.916,69.84 C341.202001,67.5739887 341.570498,65.4785096 342.0215,63.5535 C342.472502,61.6284904 342.939998,60.0995057 343.424,58.9665 Z M353.5385,83.7 C352.757496,82.7099951 352.367,81.412008 352.367,79.806 C352.367,78.0459912 352.773996,76.3795079 353.588,74.8065 C354.402004,73.2334921 355.485493,71.9685048 356.8385,71.0115 C358.191507,70.0544952 359.626992,69.576 361.145,69.576 C361.629002,69.576 361.953499,69.6694991 362.1185,69.8565 C362.283501,70.0435009 362.420999,70.3789976 362.531,70.863 C362.949002,70.7749996 363.410997,70.731 363.917,70.731 C364.445003,70.731 364.851999,70.8629987 365.138,71.127 C365.424001,71.3910013 365.567,71.7649976 365.567,72.249 C365.567,72.7550025 365.457001,73.6349937 365.237,74.889 C364.994999,76.2310067 364.808001,77.5124939 364.676,78.7335 C364.543999,79.9545061 364.478,81.3239924 364.478,82.842 C364.478,83.6780042 364.307502,84.2774982 363.9665,84.6405 C363.625498,85.0035018 363.070004,85.185 362.3,85.185 C361.551996,85.185 360.996502,85.0035018 360.6335,84.6405 C360.270498,84.2774982 360.089,83.6890041 360.089,82.875 L360.122,82.347 C359.439997,84.2390095 358.263008,85.185 356.591,85.185 C355.336994,85.185 354.319504,84.690005 353.5385,83.7 Z M359.561,80.565 C360.067003,79.7069957 360.517998,78.178011 360.914,75.978 L361.541,72.645 C360.638995,72.6670001 359.803004,73.0134966 359.033,73.6845 C358.262996,74.3555034 357.647002,75.2409945 357.185,76.341 C356.722998,77.4410055 356.492,78.6069938 356.492,79.839 C356.492,80.4990033 356.618499,80.9994983 356.8715,81.3405 C357.124501,81.6815017 357.459998,81.852 357.878,81.852 C358.494003,81.852 359.054997,81.4230043 359.561,80.565 Z M396.62,80.697 L399.491,83.865 C399.997003,84.3930026 400.25,84.9429971 400.25,85.515 C400.25,86.0650028 400.030002,86.5214982 399.59,86.8845 C399.149998,87.2475018 398.567004,87.429 397.841,87.429 C396.828995,87.429 396.059003,87.1210031 395.531,86.505 L392.759,83.238 C390.162987,84.5360065 387.677012,85.185 385.301,85.185 C383.540991,85.185 382.001007,84.9100028 380.681,84.36 C379.360993,83.8099972 378.343504,83.0510048 377.6285,82.083 C376.913496,81.1149952 376.556,80.0370059 376.556,78.849 C376.556,77.242992 377.056495,75.741507 378.0575,74.3445 C379.058505,72.947493 380.691989,71.5670068 382.958,70.203 C381.681994,67.8709883 381.044,65.8140089 381.044,64.032 C381.044,62.4479921 381.373997,61.051006 382.034,59.841 C382.694003,58.6309939 383.612494,57.6960033 384.7895,57.036 C385.966506,56.3759967 387.313992,56.046 388.832,56.046 C390.76801,56.046 392.269495,56.6014944 393.3365,57.7125 C394.403505,58.8235056 394.937,60.3469903 394.937,62.283 C394.937,63.889008 394.469505,65.4014929 393.5345,66.8205 C392.599495,68.2395071 390.944012,69.6859926 388.568,71.16 C389.976007,73.0740096 391.834988,75.328987 394.145,77.925 C395.597007,76.6269935 397.037993,74.9880099 398.468,73.008 C398.710001,72.6559982 398.995998,72.4085007 399.326,72.2655 C399.656002,72.1224993 400.062998,72.051 400.547,72.051 C401.823006,72.051 402.461,72.4139964 402.461,73.14 C402.461,73.6020023 402.219002,74.2179961 401.735,74.988 C400.326993,77.1440108 398.62201,79.0469918 396.62,80.697 Z M386.159,60.6825 C385.564997,61.4635039 385.268,62.4369942 385.268,63.603 C385.268,64.9890069 385.729995,66.5069918 386.654,68.157 C388.370009,67.1449949 389.535997,66.1660047 390.152,65.22 C390.768003,64.2739953 391.076,63.2400056 391.076,62.118 C391.076,61.3039959 390.867002,60.6660023 390.449,60.204 C390.030998,59.7419977 389.415004,59.511 388.601,59.511 C387.566995,59.511 386.753003,59.9014961 386.159,60.6825 Z M390.416,80.433 C388.083988,77.638986 386.247007,75.2520099 384.905,73.272 C382.418988,74.9000081 381.176,76.5939912 381.176,78.354 C381.176,79.3660051 381.560996,80.1524972 382.331,80.7135 C383.101004,81.2745028 384.156993,81.555 385.499,81.555 C387.215009,81.555 388.853992,81.1810037 390.416,80.433 Z M436.55759,83.1840195 C435.263055,83.7943736 433.588542,84.2798623 431.534,84.6405 C429.46599,85.0035018 427.43101,85.185 425.429,85.185 C422.656986,85.185 420.336009,84.8715031 418.466,84.2445 C416.595991,83.6174969 415.204505,82.7540055 414.2915,81.654 C413.378495,80.5539945 412.922,79.3110069 412.922,77.925 C412.922,76.0329905 413.532494,74.4215067 414.7535,73.0905 C415.974506,71.7594933 417.772988,70.797003 420.149,70.203 C418.850994,69.8289981 417.855503,69.1690047 417.1625,68.223 C416.469497,67.2769953 416.123,66.2210058 416.123,65.055 C416.123,63.4709921 416.623495,62.0685061 417.6245,60.8475 C418.625505,59.6264939 419.972992,58.6860033 421.667,58.026 C423.361008,57.3659967 425.21999,57.036 427.244,57.036 C429.972014,57.036 432.017993,57.6244941 433.382,58.8015 C434.746007,59.9785059 435.428,61.5019907 435.428,63.372 C435.428,64.6700065 435.191502,65.720496 434.7185,66.5235 C434.245498,67.326504 433.569004,67.728 432.689,67.728 C432.072997,67.728 431.589002,67.5905014 431.237,67.3155 C430.884998,67.0404986 430.709,66.6280028 430.709,66.078 C430.709,65.7039981 430.763999,65.2970022 430.874,64.857 C430.984001,64.1309964 431.039,63.6360013 431.039,63.372 C431.039,62.579996 430.742003,61.9365025 430.148,61.4415 C429.553997,60.9464975 428.564007,60.699 427.178,60.699 C425.307991,60.699 423.812006,61.094996 422.69,61.887 C421.567994,62.679004 421.007,63.7459933 421.007,65.088 C421.007,66.1220052 421.430496,66.9744966 422.2775,67.6455 C423.124504,68.3165034 424.50499,68.6849997 426.419,68.751 C426.903002,68.7730001 427.243999,68.882999 427.442,69.081 C427.640001,69.279001 427.739,69.6089977 427.739,70.071 C427.739,71.5230073 427.079007,72.2599999 425.759,72.282 C423.932991,72.3260002 422.420506,72.5789977 421.2215,73.041 C420.022494,73.5030023 419.153503,74.0914964 418.6145,74.8065 C418.075497,75.5215036 417.806,76.2859959 417.806,77.1 C417.806,78.4640068 418.443994,79.4924965 419.72,80.1855 C420.996006,80.8785035 423.019986,81.225 425.792,81.225 C427.618009,81.225 429.54849,81.0105021 431.5835,80.5815 C433.120605,80.2574617 434.491386,79.8800835 435.695867,79.4493589 C435.739406,77.8177966 436.150614,76.2646909 436.9295,74.79 C437.754504,73.2279922 438.854493,71.9685048 440.2295,71.0115 C441.604507,70.0544952 443.072992,69.576 444.635,69.576 C445.163003,69.576 445.569999,69.7519982 445.856,70.104 C446.054001,69.3999965 446.350998,68.9270012 446.747,68.685 C447.143002,68.4429988 447.692996,68.322 448.397,68.322 C449.145004,68.322 449.645499,68.4319989 449.8985,68.652 C450.151501,68.8720011 450.267,69.1909979 450.245,69.609 C450.245,69.8730013 450.107501,70.4834952 449.8325,71.4405 C449.557499,72.3975048 449.376,73.0299985 449.288,73.338 C448.935998,74.5700062 448.556502,75.9339925 448.1495,77.43 C447.742498,78.9260075 447.418001,80.2899938 447.176,81.522 C446.471996,85.0420176 446.12,88.1549865 446.12,90.861 C446.12,91.8730051 446.202499,92.7364964 446.3675,93.4515 C446.532501,94.1665036 446.746999,94.524 447.011,94.524 C447.231001,94.524 447.467499,94.1500037 447.7205,93.402 C447.973501,92.6539963 448.187999,91.6530063 448.364,90.399 C448.540001,89.1449937 448.628,87.814007 448.628,86.406 C448.628,84.7339916 448.551001,83.2490065 448.397,81.951 C448.375,81.8409995 448.364,81.6650012 448.364,81.423 C448.364,80.6969964 448.545498,80.0920024 448.9085,79.608 C449.271502,79.1239976 449.782997,78.882 450.443,78.882 C450.531,78.882 451.366992,78.8490003 452.951,78.783 C453.611003,78.7169997 454.171998,78.684 454.634,78.684 C455.140003,78.684 455.393,79.0249966 455.393,79.707 C455.393,80.5650043 455.200502,81.2359976 454.8155,81.72 C454.430498,82.2040024 453.908003,82.446 453.248,82.446 L452.027,82.413 C451.806999,82.3909999 451.488002,82.38 451.07,82.38 C451.158,83.6340063 451.202,84.8879937 451.202,86.142 C451.202,89.4640166 450.767504,92.3569877 449.8985,94.821 C449.029496,97.2850123 447.671009,98.517 445.823,98.517 C444.568994,98.517 443.617503,97.7965072 442.9685,96.3555 C442.319497,94.9144928 441.995,93.1600103 441.995,91.092 C441.995,88.5179871 442.280997,85.9770125 442.853,83.469 C442.104996,84.6130057 441.126006,85.185 439.916,85.185 C438.705994,85.185 437.699504,84.6790051 436.8965,83.667 C436.77422,83.5128932 436.66125,83.3518998 436.55759,83.1840195 Z M442.688,80.9115 C442.225998,81.5385031 441.742003,81.852 441.236,81.852 C440.795998,81.852 440.449501,81.6705018 440.1965,81.3075 C439.943499,80.9444982 439.817,80.4220034 439.817,79.74 C439.817,78.5299939 440.053498,77.3805054 440.5265,76.2915 C440.999502,75.2024946 441.637496,74.3280033 442.4405,73.668 C443.243504,73.0079967 444.128995,72.6670001 445.097,72.645 L443.678,78.651 C443.479999,79.5310044 443.150002,80.2844969 442.688,80.9115 Z M453.5615,83.8155 C452.934497,82.9024954 452.621,81.7640068 452.621,80.4 C452.621,78.7499917 452.730999,77.2375069 452.951,75.8625 C453.171001,74.4874931 453.533997,73.0300077 454.04,71.49 C454.260001,70.8299967 454.567998,70.3570014 454.964,70.071 C455.360002,69.7849986 455.986996,69.642 456.845,69.642 C457.329002,69.642 457.664499,69.7189992 457.8515,69.873 C458.038501,70.0270008 458.132,70.2579985 458.132,70.566 C458.132,70.7420009 458.011001,71.3359949 457.769,72.348 C457.548999,73.1620041 457.373001,73.8989967 457.241,74.559 C456.800998,76.8690115 456.581,78.4089961 456.581,79.179 C456.581,79.6410023 456.635999,79.9654991 456.746,80.1525 C456.856001,80.3395009 457.031999,80.433 457.274,80.433 C457.604002,80.433 458.016498,80.1030033 458.5115,79.443 C459.006502,78.7829967 459.534497,77.7820067 460.0955,76.44 C460.656503,75.0979933 461.200997,73.4480098 461.729,71.49 C461.905001,70.8299967 462.174498,70.3570014 462.5375,70.071 C462.900502,69.7849986 463.444996,69.642 464.171,69.642 C464.677003,69.642 465.028999,69.7024994 465.227,69.8235 C465.425001,69.9445006 465.524,70.1699984 465.524,70.5 C465.524,71.0500027 465.249003,72.5569877 464.699,75.021 C464.082997,77.8370141 463.775,79.5749967 463.775,80.235 C463.775,80.6530021 463.862999,80.9774988 464.039,81.2085 C464.215001,81.4395012 464.445999,81.555 464.732,81.555 C465.172002,81.555 465.694497,81.2855027 466.2995,80.7465 C466.904503,80.2074973 467.712995,79.333006 468.725,78.123 C468.989001,77.8149985 469.285998,77.661 469.616,77.661 C469.902001,77.661 470.127499,77.7929987 470.2925,78.057 C470.457501,78.3210013 470.54,78.6839977 470.54,79.146 C470.54,80.0260044 470.331002,80.7079976 469.913,81.192 C468.966995,82.3580058 467.949505,83.3149963 466.8605,84.063 C465.771495,84.8110037 464.534007,85.185 463.148,85.185 C462.091995,85.185 461.316502,84.7780041 460.8215,83.964 C460.326498,83.1499959 460.079,82.0060074 460.079,80.532 C459.704998,82.0280075 459.144004,83.177496 458.396,83.9805 C457.647996,84.783504 456.845004,85.185 455.987,85.185 C454.996995,85.185 454.188503,84.7285046 453.5615,83.8155 Z M476.412498,78.6341503 C476.281499,77.7332048 476.216,76.7598225 476.216,75.714 C476.216,73.0299866 476.562497,69.9720172 477.2555,66.54 C477.948503,63.1079828 478.971493,60.1600123 480.3245,57.696 C481.677507,55.2319877 483.288991,54 485.159,54 C486.215005,54 487.045497,54.4894951 487.6505,55.4685 C488.255503,56.4475049 488.558,57.8499909 488.558,59.676 C488.558,62.2940131 487.832007,65.3299827 486.38,68.784 C484.927993,72.2380173 482.959012,75.6589831 480.473,79.047 C480.627001,79.9490045 480.879998,80.5924981 481.232,80.9775 C481.584002,81.3625019 482.045997,81.555 482.618,81.555 C483.520005,81.555 484.311997,81.2965026 484.994,80.7795 C485.676003,80.2624974 486.544995,79.3770063 487.601,78.123 C487.865001,77.8149985 488.161998,77.661 488.492,77.661 C488.778001,77.661 489.003499,77.7929987 489.1685,78.057 C489.333501,78.3210013 489.416,78.6839977 489.416,79.146 C489.416,80.0260044 489.207002,80.7079976 488.789,81.192 C487.842995,82.3580058 486.814506,83.3149963 485.7035,84.063 C484.592494,84.8110037 483.333007,85.185 481.925,85.185 C479.98899,85.185 478.553505,84.3050088 477.6185,82.545 C477.523038,82.3653065 477.432449,82.1802242 477.346733,81.9897528 C475.425387,84.1199271 473.61849,85.185 471.926,85.185 C470.495993,85.185 469.456503,84.6790051 468.8075,83.667 C468.158497,82.6549949 467.834,81.3130084 467.834,79.641 C467.834,78.650995 467.960499,77.3805078 468.2135,75.8295 C468.466501,74.2784922 468.790998,72.8320067 469.187,71.49 C469.385001,70.7859965 469.648998,70.3020013 469.979,70.038 C470.309002,69.7739987 470.836996,69.642 471.563,69.642 C472.685006,69.642 473.246,70.0159963 473.246,70.764 C473.246,71.3140028 473.037002,72.58999 472.619,74.592 C472.090997,77.0120121 471.827,78.6509957 471.827,79.509 C471.827,80.1690033 471.914999,80.6749982 472.091,81.027 C472.267001,81.3790018 472.563998,81.555 472.982,81.555 C473.378002,81.555 473.872997,81.2800027 474.467,80.73 C474.97225,80.2621756 475.620745,79.5635644 476.412498,78.6341503 Z M470.111,66.8205 C469.648998,66.3914979 469.418,65.7920038 469.418,65.022 C469.418,64.2519961 469.720497,63.6085026 470.3255,63.0915 C470.930503,62.5744974 471.683995,62.316 472.586,62.316 C473.400004,62.316 474.059997,62.513998 474.566,62.91 C475.072003,63.306002 475.325,63.8669964 475.325,64.593 C475.325,65.4730044 475.039003,66.1714974 474.467,66.6885 C473.894997,67.2055026 473.136005,67.464 472.19,67.464 C471.265995,67.464 470.573002,67.2495021 470.111,66.8205 Z M482.717,60.006 C483.355003,58.1799909 483.926997,57.267 484.433,57.267 C485.049003,57.267 485.357,58.1029916 485.357,59.775 C485.357,61.9090107 484.895005,64.2684871 483.971,66.8535 C483.046995,69.4385129 481.804008,72.0179871 480.242,74.592 C480.286,72.1059876 480.549998,69.5100135 481.034,66.804 C481.518002,64.0979865 482.078997,61.8320091 482.717,60.006 Z M487.6835,83.667 C487.034497,82.6549949 486.71,81.3130084 486.71,79.641 C486.71,78.650995 486.836499,77.3805078 487.0895,75.8295 C487.342501,74.2784922 487.666998,72.8320067 488.063,71.49 C488.261001,70.7859965 488.524998,70.3020013 488.855,70.038 C489.185002,69.7739987 489.712996,69.642 490.439,69.642 C491.561006,69.642 492.122,70.0159963 492.122,70.764 C492.122,71.3140028 491.913002,72.58999 491.495,74.592 C490.966997,77.0120121 490.703,78.6509957 490.703,79.509 C490.703,80.1690033 490.790999,80.6749982 490.967,81.027 C491.143001,81.3790018 491.439998,81.555 491.858,81.555 C492.254002,81.555 492.748997,81.2800027 493.343,80.73 C493.937003,80.1799972 494.728995,79.3110059 495.719,78.123 C495.983001,77.8149985 496.279998,77.661 496.61,77.661 C496.896001,77.661 497.121499,77.7929987 497.2865,78.057 C497.451501,78.3210013 497.534,78.6839977 497.534,79.146 C497.534,80.0260044 497.325002,80.7079976 496.907,81.192 C494.728989,83.8540133 492.694009,85.185 490.802,85.185 C489.371993,85.185 488.332503,84.6790051 487.6835,83.667 Z M489.9275,67.1175 C489.696499,66.8864988 489.581,66.6060016 489.581,66.276 C489.581,66.1219992 489.635999,65.9130013 489.746,65.649 L492.815,58.785 C493.013001,58.3449978 493.271498,58.020501 493.5905,57.8115 C493.909502,57.602499 494.266998,57.498 494.663,57.498 C495.213003,57.498 495.702498,57.695998 496.1315,58.092 C496.560502,58.488002 496.775,58.982997 496.775,59.577 C496.775,60.1930031 496.533002,60.8089969 496.049,61.425 L491.792,66.903 C491.505999,67.2770019 491.154002,67.464 490.736,67.464 C490.427998,67.464 490.158501,67.3485012 489.9275,67.1175 Z M513.077,75.318 C513.231001,75.6040014 513.308,75.9669978 513.308,76.407 C513.308,76.9570028 513.231001,77.3804985 513.077,77.6775 C512.922999,77.9745015 512.681002,78.1779995 512.351,78.288 C511.030993,78.7500023 509.579008,79.0139997 507.995,79.08 C507.554998,80.9060091 506.724506,82.3799944 505.5035,83.502 C504.282494,84.6240056 502.935007,85.185 501.461,85.185 C499.238989,85.185 497.622005,84.3380085 496.61,82.644 C495.597995,80.9499915 495.092,78.4970161 495.092,75.285 C495.092,72.4469858 495.443996,69.3615167 496.148,66.0285 C496.852004,62.6954833 497.880493,59.8575117 499.2335,57.5145 C500.586507,55.1714883 502.197991,54 504.068,54 C505.080005,54 505.893997,54.4344957 506.51,55.3035 C507.126003,56.1725043 507.434,57.2999931 507.434,58.686 C507.434,60.490009 507.093003,62.2829911 506.411,64.065 C505.728997,65.8470089 504.596008,67.7169902 503.012,69.675 C504.486007,69.7850006 505.684995,70.3954944 506.609,71.5065 C507.533005,72.6175056 508.082999,73.9869919 508.259,75.615 C509.293005,75.5489997 510.524993,75.3290019 511.955,74.955 C512.087001,74.9109998 512.240999,74.889 512.417,74.889 C512.703001,74.889 512.922999,75.0319986 513.077,75.318 Z M501.8735,59.2305 C501.356497,60.5395065 500.878002,62.3159888 500.438,64.56 C499.997998,66.8040112 499.668001,69.2569867 499.448,71.919 C500.900007,69.2569867 502.060496,66.9085102 502.9295,64.8735 C503.798504,62.8384898 504.233,61.0290079 504.233,59.445 C504.233,58.7409965 504.150501,58.2020019 503.9855,57.828 C503.820499,57.4539981 503.595001,57.267 503.309,57.267 C502.868998,57.267 502.390503,57.9214935 501.8735,59.2305 Z M503.408,80.829 C502.879997,81.4010029 502.275003,81.687 501.593,81.687 C500.954997,81.687 500.399502,81.3570033 499.9265,80.697 C499.453498,80.0369967 499.217,79.0800063 499.217,77.826 C499.217,76.3299925 499.519497,75.1365045 500.1245,74.2455 C500.729503,73.3544955 501.482995,72.909 502.385,72.909 L502.484,72.909 C502.396,73.4370026 502.352,73.8549985 502.352,74.163 C502.352,74.9990042 502.533498,75.7909963 502.8965,76.539 C503.259502,77.2870037 503.781997,77.8919977 504.464,78.354 C504.287999,79.4320054 503.936003,80.2569971 503.408,80.829 Z M511.0475,83.865 C510.706498,82.9849956 510.536,81.5770097 510.536,79.641 C510.536,76.7809857 510.942996,74.0640129 511.757,71.49 C511.955001,70.8519968 512.279498,70.3845015 512.7305,70.0875 C513.181502,69.7904985 513.813996,69.642 514.628,69.642 C515.068002,69.642 515.375999,69.6969994 515.552,69.807 C515.728001,69.9170005 515.816,70.1259985 515.816,70.434 C515.816,70.7860018 515.651002,71.5779938 515.321,72.81 C515.100999,73.6900044 514.925001,74.4599967 514.793,75.12 C514.660999,75.7800033 514.551,76.5939952 514.463,77.562 C515.189004,75.6699905 516.002995,74.1300059 516.905,72.942 C517.807005,71.7539941 518.692496,70.9070025 519.5615,70.401 C520.430504,69.8949975 521.227996,69.642 521.954,69.642 C523.384007,69.642 524.099,70.3569928 524.099,71.787 C524.099,72.0730014 524.000001,72.7659945 523.802,73.866 C523.625999,74.7460044 523.538,75.2959989 523.538,75.516 C523.538,76.2860039 523.812997,76.671 524.363,76.671 C524.979003,76.671 525.770995,76.1870048 526.739,75.219 C527.025001,74.9329986 527.321998,74.79 527.63,74.79 C527.916001,74.79 528.141499,74.9164987 528.3065,75.1695 C528.471501,75.4225013 528.554,75.7579979 528.554,76.176 C528.554,76.9900041 528.334002,77.6279977 527.894,78.09 C527.277997,78.7280032 526.557504,79.2724977 525.7325,79.7235 C524.907496,80.1745023 524.033005,80.4 523.109,80.4 C521.942994,80.4 521.057503,80.103003 520.4525,79.509 C519.847497,78.914997 519.545,78.1120051 519.545,77.1 C519.545,76.7699983 519.578,76.4400016 519.644,76.11 C519.688,75.6699978 519.71,75.3730008 519.71,75.219 C519.71,74.8669982 519.589001,74.691 519.347,74.691 C519.016998,74.691 518.582503,75.0594963 518.0435,75.7965 C517.504497,76.5335037 516.971003,77.5069939 516.443,78.717 C515.914997,79.9270061 515.486002,81.2029933 515.156,82.545 C514.913999,83.5790052 514.633502,84.2774982 514.3145,84.6405 C513.995498,85.0035018 513.495003,85.185 512.813,85.185 C511.976996,85.185 511.388502,84.7450044 511.0475,83.865 Z M533.204528,79.5776015 C532.775018,80.0524953 532.401843,80.4366268 532.085,80.73 C531.490997,81.2800027 530.996002,81.555 530.6,81.555 C530.181998,81.555 529.885001,81.3790018 529.709,81.027 C529.532999,80.6749982 529.445,80.1690033 529.445,79.509 C529.445,78.6509957 529.708997,77.0120121 530.237,74.592 C530.655002,72.58999 530.864,71.3140028 530.864,70.764 C530.864,70.0159963 530.303006,69.642 529.181,69.642 C528.454996,69.642 527.927002,69.7739987 527.597,70.038 C527.266998,70.3020013 527.003001,70.7859965 526.805,71.49 C526.408998,72.8320067 526.084501,74.2784922 525.8315,75.8295 C525.578499,77.3805078 525.452,78.650995 525.452,79.641 C525.452,81.3130084 525.776497,82.6549949 526.4255,83.667 C527.074503,84.6790051 528.113993,85.185 529.544,85.185 C531.052322,85.185 532.651507,84.3391074 534.341586,82.6473018 C534.749226,83.2586415 535.256529,83.7800384 535.8635,84.2115 C536.776505,84.8605032 537.881994,85.185 539.18,85.185 C540.500007,85.185 541.704495,84.8165037 542.7935,84.0795 C543.882505,83.3424963 544.745997,82.3195065 545.384,81.0105 C546.022003,79.7014935 546.341,78.2110084 546.341,76.539 C546.341,75.3289939 546.110002,74.1960053 545.648,73.14 C545.185998,72.0839947 544.493005,71.2315032 543.569,70.5825 C542.644995,69.9334968 541.534006,69.609 540.236,69.609 C538.893993,69.609 537.684005,69.9774963 536.606,70.7145 C535.527995,71.4515037 534.675503,72.4744935 534.0485,73.7835 C533.421497,75.0925065 533.108,76.5829916 533.108,78.255 C533.108,78.7065944 533.140176,79.147461 533.204528,79.5776015 Z M527.729,66.8205 C527.266998,66.3914979 527.036,65.7920038 527.036,65.022 C527.036,64.2519961 527.338497,63.6085026 527.9435,63.0915 C528.548503,62.5744974 529.301995,62.316 530.204,62.316 C531.018004,62.316 531.677997,62.513998 532.184,62.91 C532.690003,63.306002 532.943,63.8669964 532.943,64.593 C532.943,65.4730044 532.657003,66.1714974 532.085,66.6885 C531.512997,67.2055026 530.754005,67.464 529.808,67.464 C528.883995,67.464 528.191002,67.2495021 527.729,66.8205 Z M541.4405,80.4 C541.957503,79.5859959 542.216,78.3980078 542.216,76.836 C542.216,75.625994 541.996002,74.7130031 541.556,74.097 C541.115998,73.4809969 540.588003,73.173 539.972,73.173 C539.179996,73.173 538.525503,73.574496 538.0085,74.3775 C537.491497,75.180504 537.233,76.3739921 537.233,77.958 C537.233,79.2120063 537.452998,80.135997 537.893,80.73 C538.333002,81.324003 538.882997,81.621 539.543,81.621 C540.291004,81.621 540.923497,81.2140041 541.4405,80.4 Z" id="Cozinha-&amp;-Equilíbrio"></path>
        </g>
    </g>
</svg>
